<svg xmlns="http://www.w3.org/2000/svg" width="28.739" height="28.697" viewBox="0 0 28.739 28.697">
  <g id="noun-globe-6027635" transform="translate(-2.5 -2.57)">
    <path id="Path_1425" data-name="Path 1425" d="M15.958,15.5H9.2a20.074,20.074,0,0,1,1.256-5.748,15.9,15.9,0,0,0,5.5,1.314Zm-5.523,8.523A15.908,15.908,0,0,1,15.958,22.7V17.325h-6.8a20.14,20.14,0,0,0,1.278,6.7h0ZM15.958,2.57c-.305.019-.607.049-.907.087a20.264,20.264,0,0,0-3.87,5.422,14.084,14.084,0,0,0,4.777,1.16Zm1.823,8.5V15.5h6.556a20.1,20.1,0,0,0-1.228-5.675,15.91,15.91,0,0,1-5.328,1.242Zm0-8.5V9.239a14.067,14.067,0,0,0,4.611-1.091,20.241,20.241,0,0,0-3.921-5.509l.009-.009q-.346-.038-.7-.06ZM9.564,7.237A21.994,21.994,0,0,1,11.97,3.4a14.362,14.362,0,0,0-4.3,2.471,14.322,14.322,0,0,0,1.893,1.37h0ZM17.781,22.7a15.917,15.917,0,0,1,5.351,1.251,20.157,20.157,0,0,0,1.249-6.626h-6.6ZM21.494,3.3a21.993,21.993,0,0,1,2.529,4.027,14.24,14.24,0,0,0,2.045-1.463A14.351,14.351,0,0,0,21.494,3.3ZM15.958,24.527A14.1,14.1,0,0,0,11.152,25.7a20.252,20.252,0,0,0,3.9,5.481c.3.038.6.067.907.087v-6.74Zm8.091,1.927a21.955,21.955,0,0,1-2.556,4.081,14.361,14.361,0,0,0,4.615-2.6,14.168,14.168,0,0,0-2.059-1.482h0ZM26.2,17.324a21.937,21.937,0,0,1-1.431,7.436,16.023,16.023,0,0,1,2.658,1.913,14.325,14.325,0,0,0,3.808-9.349ZM24.752,9.017A21.9,21.9,0,0,1,26.165,15.5h5.015a14.326,14.326,0,0,0-3.785-8.376,15.9,15.9,0,0,1-2.643,1.893h0ZM9.536,26.545A14.268,14.268,0,0,0,7.63,27.935a14.364,14.364,0,0,0,4.34,2.506,22.049,22.049,0,0,1-2.434-3.9h0ZM18.472,31.2a20.224,20.224,0,0,0,3.951-5.567,14.1,14.1,0,0,0-4.641-1.1v6.74q.352-.022.7-.06ZM8.8,24.859a21.951,21.951,0,0,1-1.468-7.535H2.5a14.324,14.324,0,0,0,3.807,9.349,16.04,16.04,0,0,1,2.5-1.814ZM7.374,15.5a21.932,21.932,0,0,1,1.45-6.58,16.018,16.018,0,0,1-2.48-1.8A14.324,14.324,0,0,0,2.559,15.5Z" fill="#727272"/>
  </g>
</svg>
