<svg id="Group_2524" data-name="Group 2524" xmlns="http://www.w3.org/2000/svg" width="20" height="41" viewBox="0 0 20 41">
  <path id="Rectangle_495" data-name="Rectangle 495" d="M6,0H20a0,0,0,0,1,0,0V41a0,0,0,0,1,0,0H6a6,6,0,0,1-6-6V6A6,6,0,0,1,6,0Z"/>
  <g id="_01_align_center" data-name="01 align center" transform="translate(13.161 13.555) rotate(90)">
    <path id="Path_845" data-name="Path 845" d="M12.517,6.731,7.04,1.254a.566.566,0,0,0-.784,0L.784,6.728,0,5.944,5.473.471a1.7,1.7,0,0,1,2.352,0L13.3,5.947Z" transform="translate(0)" fill="#fff"/>
  </g>
</svg>
