<svg id="Group_2457" data-name="Group 2457" xmlns="http://www.w3.org/2000/svg" width="20" height="41" viewBox="0 0 20 41">
  <path id="Rectangle_495" data-name="Rectangle 495" d="M0,0H14a6,6,0,0,1,6,6V35a6,6,0,0,1-6,6H0a0,0,0,0,1,0,0V0A0,0,0,0,1,0,0Z"/>
  <g id="_01_align_center" data-name="01 align center" transform="translate(13.569 13.555) rotate(90)">
    <path id="Path_845" data-name="Path 845" d="M12.517,0,7.04,5.476a.566.566,0,0,1-.784,0L.784,0,0,.787,5.473,6.26a1.7,1.7,0,0,0,2.352,0L13.3.784Z" transform="translate(0)" fill="#fff"/>
  </g>
</svg>
