<svg xmlns="http://www.w3.org/2000/svg" width="228" height="228" viewBox="0 0 228 228">
  <g id="Group_2466" data-name="Group 2466" transform="translate(-114 -413)">
    <path id="QR_code_for_mobile_English_Wikipedia" d="M32,195.551V173.1H76.9V218H32V195.551Zm38.483,0V179.517H38.414v32.069H70.483V195.551Zm-25.655,0v-9.621H64.069v19.241H44.828v-9.621Zm44.9,19.241v-3.207H83.31V198.758h6.414V179.517h6.414V173.1H83.31v-6.414H57.655v-6.414h6.414v-6.414H51.241v12.828H44.828v-6.414H32v-6.414H44.828V141.034H38.414v6.414H32V134.62H44.828v6.414h6.414v6.414h6.414v-6.414h6.414v6.414H76.9v-6.414H70.483V134.62H51.241v-6.414H70.483v-6.414H51.241v-6.414H44.828v6.414H32V102.552h6.414v6.414H76.9v-6.414H70.483V96.138H57.655v6.414H51.241V96.138H38.414V83.31H51.241V96.138h6.414V89.724H70.483V83.31H76.9v6.414H70.483v6.414H76.9v6.414H83.31V89.724h6.414V83.31H83.31V64.069H96.138v6.414h6.414V76.9H96.138V83.31h6.414v38.483H89.724v-6.414H83.31v6.414H76.9v6.414H70.483v6.414H76.9v6.414H83.31v6.414H96.138v-6.414H89.724V134.62H83.31v-6.414H96.138v12.828h6.414V128.207h6.414v12.828h6.414V121.793h6.414v-6.414h6.414v6.414h-6.414v6.414h6.414v6.414h19.241v-6.414h-6.414v-6.414H134.62V108.965h-6.414v-6.414h6.414V96.138h6.414V89.724H134.62V83.31h-6.414V96.138h-6.414V89.724h-6.414v6.414h-6.414V89.724h6.414V83.31h-6.414V64.069h-6.414V57.655h6.414v6.414h6.414V38.414h6.414V51.241H134.62V44.828h-6.414V32h12.828v6.414H134.62v6.414h12.828V38.414h6.414V32h12.828V51.241H153.862V44.828h-6.414V57.655h6.414V76.9h6.414V70.483h6.414v32.069h12.828V96.138H173.1V83.31h12.828v19.241h12.828V96.138h-6.414V83.31h6.414V96.138h6.414V89.724H218v12.828h-6.414V96.138h-6.414v6.414h-6.414v19.241h6.414v6.414h-6.414v6.414H185.931v6.414h-6.414v6.414H166.689v-6.414h-6.414V134.62h-6.414v12.828h6.414v6.414h19.241v6.414h12.828v-6.414h-6.414v-6.414h6.414v-6.414h6.414v6.414h6.414v6.414h6.414V141.034h-6.414V134.62H218v19.241h-6.414v12.828H218v12.828h-6.414v19.241H218v6.414H198.758V218H179.517v-6.414h12.828v-6.414H179.517V192.344H173.1v12.828h-6.414v6.414H173.1V218H160.276V198.758h-6.414v12.828h-6.414v-6.414h-6.414V179.517h6.414v19.241h6.414V179.517h6.414V166.689h-6.414v-6.414h-6.414v-6.414h6.414v-6.414h-6.414v-6.414h-6.414v25.655h6.414V173.1H134.62v12.828h-6.414v12.828h6.414v6.414h-6.414v6.414h12.828V218H128.207v-6.414h-6.414v-6.414h-6.414V218H89.724v-3.207Zm19.241-9.621v-6.414h6.414V179.517H102.552v6.414h6.414v6.414H96.138v6.414H89.724v6.414h6.414v6.414h12.828v-6.414Zm89.793-6.414v-6.414h6.414V179.517h6.414V173.1h-6.414V153.862h-6.414V173.1h6.414v6.414h-6.414v6.414h-6.414v19.241h6.414v-6.414Zm-32.069-3.207v-3.207h-6.414v6.414h6.414v-3.207Zm-38.483-12.828v-3.207h-6.414v6.414h6.414v-3.207Zm57.724-6.414v-9.621H166.689v19.241h19.241V176.31Zm-12.828,0V173.1h6.414v6.414H173.1V176.31Zm-51.31-6.414v-3.207H134.62v-6.414H121.793v-6.414h-6.414v6.414h6.414v6.414H108.965v-6.414h-6.414v6.414H96.138v-6.414H89.724v-6.414H83.31v-6.414H76.9v6.414H70.483v6.414H76.9v-6.414H83.31v6.414h6.414v6.414h6.414V173.1h25.655V169.9Zm-19.241-19.241v-3.207H96.138v6.414h6.414v-3.207Zm32.069-3.207v-6.414H121.793v6.414h6.414v6.414h6.414v-6.414Zm38.483-9.621V134.62h-6.414v6.414H173.1v-3.207Zm12.828-6.414v-3.207h6.414V108.965h-6.414v6.414h-6.414v6.414H173.1v-6.414H160.276v-6.414h-6.414v-6.414h6.414V83.31h-6.414V76.9h-6.414V70.483h-6.414V76.9H134.62V57.655h6.414v6.414h6.414V57.655h-6.414V51.241H134.62v6.414h-6.414V76.9h6.414V83.31h6.414V76.9h6.414V96.138h-6.414v6.414H134.62v6.414h6.414v12.828h6.414v-6.414h12.828v6.414h6.414v6.414h12.828v6.414h6.414v-3.207ZM179.517,125v-3.207h6.414v6.414h-6.414V125ZM76.9,118.586v-3.207H83.31v-6.414H76.9v6.414H70.483v6.414H76.9v-3.207Zm19.241-12.828v-3.207H89.724v6.414h6.414v-3.207Zm0-32.069V70.483H89.724V76.9h6.414V73.69Zm25.655-3.207V64.069h-6.414V76.9h6.414V70.483Zm38.483-28.862V38.414h-6.414v6.414h6.414V41.621Zm51.31,173.172v-3.207H218V218h-6.414v-3.207Zm0-93v-6.414h-6.414v-6.414h6.414v6.414H218v12.828h-6.414v-6.414ZM32,54.448V32H76.9V76.9H32V54.448Zm38.483,0V38.414H38.414V70.483H70.483V54.448Zm-25.655,0V44.828H64.069V64.069H44.828V54.448Zm128.276,0V32H218V76.9H173.1V54.448Zm38.483,0V38.414H179.517V70.483h32.069V54.448Zm-25.655,0V44.828h19.241V64.069H185.931V54.448Zm-102.62,0V51.241h6.414v6.414H83.31V54.448Zm12.828-6.414V44.828H89.724V32h6.414v6.414h6.414V32h6.414v6.414h-6.414V51.241H96.138V48.034Z" transform="translate(103 402)"/>
    <path id="Subtraction_2" data-name="Subtraction 2" d="M-3719-921h-21v-2h19v-19h2v21Zm-206,0h-22v-22h2v20h20v2Zm206-206h-2v-20h-19v-2h21v22Zm-226,0h-2v-22h22v2h-20v20Z" transform="translate(4061 1562)"/>
  </g>
</svg>
